<?xml version="1.0" standalone="no"?>
<!DOCTYPE svg PUBLIC "-//W3C//DTD SVG 20010904//EN"
 "http://www.w3.org/TR/2001/REC-SVG-20010904/DTD/svg10.dtd">
<svg version="1.0" xmlns="http://www.w3.org/2000/svg"
 width="1024.000000pt" height="1024.000000pt" viewBox="0 0 1024.000000 1024.000000"
 preserveAspectRatio="xMidYMid meet">
<metadata>
Created by potrace 1.14, written by Peter Selinger 2001-2017
</metadata>
<g transform="translate(0.000000,1024.000000) scale(0.100000,-0.100000)"
fill="#000000" stroke="none">
<path d="M2047 9504 c-1 -1 -40 -4 -87 -8 -46 -4 -130 -16 -185 -27 -55 -12
-110 -23 -122 -25 -51 -10 -236 -80 -331 -125 -192 -92 -348 -204 -502 -358
-132 -132 -147 -151 -237 -283 -126 -186 -209 -374 -262 -588 -31 -127 -38
-173 -49 -315 -8 -98 -7 -5291 2 -5358 9 -81 38 -240 47 -264 5 -13 7 -23 4
-23 -11 0 82 -246 130 -345 238 -494 676 -851 1211 -990 50 -13 108 -26 130
-29 22 -4 51 -9 64 -11 14 -3 61 -8 105 -12 105 -9 6194 -9 6305 0 360 29 702
164 995 392 326 254 576 653 664 1060 45 210 44 143 44 2915 0 1449 -3 2660
-6 2690 -4 30 -9 73 -12 95 -3 22 -7 55 -10 72 -3 18 -6 34 -5 35 1 11 -57
210 -82 278 -32 89 -117 266 -149 312 -11 14 -19 31 -19 37 0 6 -4 11 -10 11
-5 0 -10 5 -10 11 0 23 -149 208 -245 304 -241 242 -533 409 -855 490 -114 29
-156 36 -280 51 -49 6 -6235 14 -6243 8z m609 -584 c6 0 -14 -51 -44 -112 -30
-62 -67 -140 -82 -173 -15 -33 -63 -132 -105 -220 -108 -224 -203 -424 -325
-680 -152 -321 -149 -315 -175 -316 -14 0 -81 0 -150 0 -69 0 -307 0 -529 0
l-404 1 3 108 c5 168 14 280 31 361 116 579 602 999 1189 1028 61 3 111 6 112
7 1 1 442 -2 479 -4z m2544 6 c0 -2 -43 -93 -96 -203 -53 -109 -109 -225 -124
-258 -15 -33 -69 -145 -119 -249 -50 -103 -91 -189 -91 -191 0 -1 -38 -81 -84
-176 -46 -96 -110 -229 -142 -296 -36 -77 -64 -123 -73 -124 -39 -2 -1991 -4
-1991 -1 0 1 21 46 46 100 26 53 63 133 84 177 60 129 114 242 173 365 30 63
91 192 135 285 44 94 104 220 132 280 29 61 72 152 96 203 l43 92 1005 0 c553
0 1006 -2 1006 -4z m2470 0 c0 -7 -62 -139 -174 -370 -53 -109 -96 -200 -96
-201 0 -2 -49 -106 -110 -230 -60 -125 -110 -229 -110 -230 0 -4 -207 -436
-218 -454 -7 -13 -143 -15 -978 -15 -905 0 -969 2 -966 17 2 10 50 114 107
233 58 119 105 217 105 219 0 1 45 97 101 211 56 115 116 241 134 279 18 39
64 135 102 215 38 80 89 187 113 238 l43 92 974 0 c535 0 973 -2 973 -4z m685
-21 c255 -52 470 -169 660 -360 92 -92 195 -220 195 -241 0 -3 8 -18 19 -32
51 -73 118 -259 147 -407 20 -100 28 -434 10 -436 -44 -4 -1890 -3 -1896 1 -5
3 17 57 47 120 31 63 77 160 103 215 26 55 80 168 120 250 40 83 89 186 110
230 96 204 135 284 228 477 l101 207 38 -4 c21 -2 74 -11 118 -20z m1040
-4245 c0 -1191 -4 -2193 -8 -2228 -9 -75 -49 -230 -77 -303 -46 -117 -145
-283 -207 -349 -8 -8 -35 -38 -61 -65 -100 -107 -243 -211 -382 -277 -111 -52
-182 -76 -310 -102 l-115 -25 -3130 2 c-1722 1 -3143 6 -3160 10 -16 4 -55 12
-85 18 -206 42 -453 176 -616 337 -201 198 -318 414 -377 696 -20 101 -21 111
-22 2277 l-2 2177 4276 -2 4276 -1 0 -2165z"/>
<path d="M4300 5800 c-102 -18 -195 -100 -226 -199 -16 -51 -17 -154 -17
-1492 0 -1381 1 -1439 19 -1490 52 -145 226 -233 365 -186 41 14 1121 753
2003 1371 170 119 216 186 217 308 1 126 -45 189 -225 313 -64 44 -190 132
-281 195 -90 63 -195 136 -232 162 -51 35 -438 304 -573 398 -8 6 -105 73
-215 150 -110 76 -208 145 -217 152 -10 7 -46 32 -80 56 -378 261 -372 257
-463 265 -22 2 -56 1 -75 -3z"/>
</g>
</svg>
