<?xml version="1.0" encoding="utf-8"?>
<!-- Generator: Adobe Illustrator 26.2.1, SVG Export Plug-In . SVG Version: 6.00 Build 0)  -->
<svg version="1.1" id="Layer_1" xmlns="http://www.w3.org/2000/svg" xmlns:xlink="http://www.w3.org/1999/xlink" x="0px" y="0px"
	 viewBox="0 0 122.9 111.3" style="enable-background:new 0 0 122.9 111.3;" xml:space="preserve">
<style type="text/css">
	.st0{opacity:0.5;fill:#FFFFFF;}
</style>
<path class="st0" d="M23.6,0h75.7c13,0,23.5,10.6,23.6,23.6v64.2c0,6.2-2.5,12.2-6.9,16.7l-0.2,0.2c-4.4,4.3-10.3,6.7-16.4,6.7H23.6
	c-6.3,0-12.2-2.5-16.7-6.9l-0.2-0.2C2.4,99.8,0,93.9,0,87.8V23.6C0,10.6,10.6,0,23.6,0z M54,47.7l25.2,17.6c1.8,1.1,2.3,3.5,1.2,5.2
	c-0.3,0.4-0.6,0.8-1,1.1L54.2,89.1c-0.7,0.6-1.5,0.9-2.4,0.9c-2.1,0-3.8-1.7-3.8-3.8c0,0,0,0,0,0V50.8l0,0c0-2.1,1.6-3.8,3.7-3.8
	C52.5,47,53.3,47.2,54,47.7z M7.3,26.5h14l9.1-19.1h-6.8c-9,0-16.2,7.3-16.2,16.2C7.3,23.6,7.3,26.5,7.3,26.5z M37,7.3l-9,19.1h25.4
	l9.1-19.1l0,0L37,7.3z M69.1,7.3l-9.1,19.1h24.7l9.1-19.1H69.1z M100.4,7.3l-9.1,19.1h24.3v-2.9C115.5,15,108.9,8,100.4,7.3
	L100.4,7.3z M115.6,34H7.3v53.7C7.4,92,9,96,12,99.1l0.2,0.2c3,3,7.1,4.8,11.4,4.8h75.7c4.2,0,8.3-1.7,11.3-4.6l0.2-0.2
	c3.1-3,4.8-7.2,4.8-11.5L115.6,34L115.6,34z"/>
</svg>
